PathFileType  4	(X/Y/Z) C:\Users\antoi\Documents\MyRepositories\mobilecap\ResultsAnalysis
DataRate	CameraRate	NumFrames	NumMarkers	Units	OrigDataRate	OrigDataStartFrame	OrigNumFrames
100.0	100.0	7	51	mm	100.0	56	223
Frame#	Time	r_knee			r_shank_antsup			r_ankle			r_calc			r_5meta			r_toe			L_knee			L_shank_antsup			L_ankle			L_calc			L_5meta			L_toe			r_sh2			r_sh3			r_sh4			L_sh2			L_sh3			r_thigh1			r_thigh2			r_thigh3			r_thigh4			r_thigh5			L_thigh1			L_thigh2			L_thigh3			L_thigh4			r.ASIS			r.PSIS			L.ASIS			L.PSIS			C7			R_Shoulder			L_Shoulder			R_Sternum			L_Sternum			R_humerus			R_elbow_med			R_elbow_lat			R_forearm			R_wrist_radius			R_wrist_ulna			L_humerus			L_elbow_med			L_elbow_lat			L_forearm			L_wrist_radius			L_wrist_ulna			R_HJC			L_HJC			R_HJC_reg			L_HJC_reg			
		X1	Y1	Z1	X2	Y2	Z2	X3	Y3	Z3	X4	Y4	Z4	X5	Y5	Z5	X6	Y6	Z6	X7	Y7	Z7	X8	Y8	Z8	X9	Y9	Z9	X10	Y10	Z10	X11	Y11	Z11	X12	Y12	Z12	X13	Y13	Z13	X14	Y14	Z14	X15	Y15	Z15	X16	Y16	Z16	X17	Y17	Z17	X18	Y18	Z18	X19	Y19	Z19	X20	Y20	Z20	X21	Y21	Z21	X22	Y22	Z22	X23	Y23	Z23	X24	Y24	Z24	X25	Y25	Z25	X26	Y26	Z26	X27	Y27	Z27	X28	Y28	Z28	X29	Y29	Z29	X30	Y30	Z30	X31	Y31	Z31	X32	Y32	Z32	X33	Y33	Z33	X34	Y34	Z34	X35	Y35	Z35	X36	Y36	Z36	X37	Y37	Z37	X38	Y38	Z38	X39	Y39	Z39	X40	Y40	Z40	X41	Y41	Z41	X42	Y42	Z42	X43	Y43	Z43	X44	Y44	Z44	X45	Y45	Z45	X46	Y46	Z46	X47	Y47	Z47	X48	Y48	Z48	X49	Y49	Z49	X50	Y50	Z50	X51	Y51	Z51	

56	0.55000000	-947.02081	801.20748	-439.80825	-934.05660	718.27377	-458.36228	-1157.20864	453.45855	-466.68952	-1237.58235	451.09897	-499.44259	-1086.05726	358.18600	-442.98281	-1032.92624	366.30885	-500.58457	-719.74271	851.38201	-758.46672	-733.91184	758.12969	-763.71790	-968.59092	559.93641	-722.27126	-1032.27623	582.62771	-664.21562	-951.89584	438.64904	-764.88466	-896.64114	424.56401	-720.58254	-1007.17262	629.39690	-437.56563	-993.49335	763.45322	-426.02962	-1063.72376	674.57611	-424.13365	-795.68853	820.95982	-755.03039	-874.61025	726.91730	-757.03389	-830.57827	1102.80524	-403.81505	-852.90681	994.08336	-412.46981	-913.24135	979.30835	-389.35941	-942.11942	1122.25056	-390.33370	-960.82600	1006.74593	-401.53925	-803.09716	1108.36701	-787.57697	-730.90084	989.66902	-774.77924	-896.55779	1052.84985	-740.70343	-820.33340	933.90592	-744.90205	-787.63975	1264.11254	-445.19706	-971.08201	1338.45795	-515.75354	-795.38739	1273.00794	-697.75376	-981.79222	1345.85521	-616.86015	-897.84932	1746.46218	-565.51480	-791.91626	1713.62096	-400.54720	-812.20557	1726.28230	-735.57996	-752.87289	1691.13082	-544.89239	-756.22521	1698.49571	-577.29229	-757.78281	1593.57854	-327.13810	-727.17724	1373.60762	-366.11568	-711.43523	1399.42799	-293.65328	-581.98309	1445.43092	-323.46227	-462.75940	1475.28244	-362.58929	-446.65781	1447.21644	-346.07211	-798.10701	1626.62108	-815.46087	-858.87655	1389.67823	-825.26352	-816.67434	1427.54415	-887.28194	-719.81037	1392.16794	-833.61244	-604.22396	1314.37840	-776.74871	-603.98183	1295.98932	-806.30616	-877.48809	1199.73702	-471.68894	-883.83339	1210.94699	-677.75459	-867.06055	1202.02249	-476.85487	-884.58681	1214.12968	-642.36374	
57	0.56000000	-937.76165	813.22537	-438.37962	-925.14282	730.72473	-455.71575	-1145.81424	463.75394	-465.41831	-1224.39317	467.52177	-498.84389	-1081.93408	361.55038	-442.80132	-1027.83765	365.57734	-499.67529	-707.74391	861.68933	-759.47052	-720.37910	767.62598	-764.71489	-951.52974	564.87432	-723.37292	-1015.12088	586.93771	-665.18801	-933.39454	443.48961	-765.61194	-877.66646	430.45369	-721.65436	-997.74450	641.40468	-435.40262	-985.14166	775.33029	-424.96922	-1055.11734	687.07527	-423.58908	-783.47604	829.33605	-757.36651	-860.34420	733.59678	-758.71733	-817.79671	1113.95707	-404.15022	-841.04217	1005.45188	-412.25566	-901.12457	990.91170	-388.75218	-929.03135	1134.04487	-389.08924	-948.59523	1018.74895	-400.64842	-790.45131	1119.09309	-789.05739	-718.71666	1000.23117	-775.82699	-884.05713	1064.01192	-742.01916	-808.21292	944.96934	-746.21652	-774.88688	1276.98616	-446.80507	-959.34763	1348.75138	-514.61690	-781.88950	1288.09938	-695.28362	-970.76352	1356.08238	-615.72951	-888.23001	1758.20221	-566.38626	-783.59403	1725.16718	-401.70630	-805.18763	1736.48935	-737.14999	-743.16976	1702.18905	-545.70174	-747.39463	1708.19920	-578.51730	-751.65373	1604.91453	-327.39437	-723.48381	1383.91529	-365.14765	-707.24915	1410.34987	-292.86760	-577.71977	1455.26817	-323.98545	-458.56418	1484.19282	-364.29877	-442.57044	1456.38874	-347.32687	-792.72778	1637.02668	-817.13417	-854.30937	1400.07213	-824.61337	-812.64809	1436.99876	-887.43955	-715.33972	1399.62006	-835.16515	-600.73395	1319.65058	-779.17882	-600.94215	1301.34931	-808.62419	-863.18020	1211.11324	-471.88518	-869.54426	1224.11183	-677.84457	-852.27329	1216.18500	-477.29896	-870.64674	1227.98776	-640.06995	
58	0.57000000	-925.65822	824.25362	-437.09342	-913.68936	742.30262	-453.30010	-1132.23801	473.86855	-464.30694	-1208.55451	484.59908	-498.28848	-1076.77076	365.63299	-442.65614	-1022.14625	365.06392	-498.63787	-696.01434	871.77257	-760.20889	-706.82312	776.80447	-765.18344	-933.95004	569.05428	-724.81270	-997.65696	590.49971	-666.46784	-913.88591	447.86893	-766.74466	-857.90524	435.73362	-722.72550	-986.00671	652.92779	-433.18542	-974.76831	787.05984	-424.18142	-1044.19295	699.11073	-423.01090	-771.18534	837.63322	-759.95570	-845.93029	739.69053	-760.60362	-804.96105	1124.99729	-404.40341	-827.99959	1016.33888	-412.10959	-887.98007	1001.90876	-387.86841	-916.02219	1144.93008	-387.86459	-935.52847	1029.67201	-399.79101	-778.14451	1129.35304	-789.73602	-706.97127	1010.48662	-776.93866	-872.09782	1074.53566	-743.36561	-796.42339	955.64119	-747.35981	-763.09645	1290.14376	-448.24907	-948.33654	1359.15579	-514.29893	-769.83358	1302.22957	-694.25059	-960.22008	1366.12090	-615.19449	-877.88490	1769.57941	-567.25726	-774.61682	1735.87329	-402.98041	-796.79897	1745.96489	-738.69985	-733.31278	1712.32704	-547.42313	-738.08966	1717.04065	-579.87222	-745.05090	1615.41430	-327.87776	-720.29546	1393.41713	-364.29099	-703.53178	1420.30391	-292.14367	-573.73114	1463.59370	-324.49211	-454.34504	1490.90118	-365.72578	-438.64018	1463.26449	-348.32487	-786.20885	1646.66571	-818.76746	-849.34670	1409.89292	-823.53636	-808.21788	1445.75824	-887.44698	-710.58674	1406.30982	-836.41598	-597.03131	1324.07738	-781.00078	-597.73982	1305.96136	-810.64713	-849.87492	1222.78698	-472.25498	-856.55312	1236.57360	-678.15707	-838.91711	1229.78697	-477.86857	-857.89827	1240.90795	-638.98957	
59	0.58000000	-911.02309	834.13205	-435.83924	-899.78710	752.66666	-451.17769	-1117.07184	483.29021	-463.29298	-1190.43186	501.28285	-497.85197	-1070.88176	369.86896	-442.54748	-1015.89569	365.23413	-497.44700	-684.65114	881.52016	-760.65681	-693.18915	785.82427	-765.53093	-915.69344	572.53613	-726.58044	-979.86866	593.11704	-668.16966	-893.49509	451.67582	-768.17340	-837.34107	440.57831	-724.16031	-972.14126	663.34935	-431.00709	-961.83783	797.56442	-423.67855	-1031.08390	709.61187	-422.61807	-758.97979	845.52180	-762.16668	-831.39024	745.19992	-762.48641	-792.26150	1135.76058	-404.52358	-814.09970	1026.58281	-411.89114	-874.05479	1012.15821	-386.84917	-903.22522	1154.87827	-386.66072	-921.79816	1039.44828	-398.88396	-766.47102	1139.22573	-790.17280	-695.66206	1020.29790	-777.73038	-860.76069	1084.48156	-744.71170	-785.13096	965.73347	-748.17026	-752.30401	1303.28825	-449.30849	-937.94387	1369.45696	-514.75307	-759.60812	1314.57048	-694.90373	-950.04418	1375.89783	-615.32258	-866.93369	1780.44269	-568.52401	-765.09328	1745.72060	-404.43834	-787.10724	1754.65006	-740.35731	-722.92890	1721.68457	-549.07534	-728.22043	1725.01545	-581.38858	-737.84277	1625.01132	-328.55396	-717.53980	1402.12625	-363.54754	-700.12304	1429.30178	-291.60561	-569.89894	1470.39542	-324.79028	-450.04574	1495.53983	-366.52784	-434.76170	1467.86029	-348.96739	-778.47858	1655.37705	-820.23942	-843.93653	1419.08666	-822.44031	-803.30116	1453.85043	-887.44526	-705.61245	1412.34850	-837.12849	-593.26184	1327.75269	-782.28575	-594.40984	1309.83388	-812.24471	-837.79034	1234.56523	-472.59762	-845.23646	1247.75010	-678.51185	-827.21794	1242.00074	-478.53145	-846.57213	1252.30033	-639.37970	
60	0.59000000	-894.37861	842.63123	-434.73703	-883.60441	761.25610	-449.56527	-1101.84585	492.09279	-462.15468	-1171.67690	516.11630	-498.21618	-1064.68403	374.20164	-442.35275	-1008.74231	366.65918	-495.37888	-673.63246	890.81762	-760.86110	-679.38771	794.66113	-766.26658	-896.86032	575.28955	-728.46518	-961.70712	594.52541	-670.52797	-872.27083	454.83388	-769.88491	-816.08995	444.93233	-725.77780	-956.08936	671.80977	-429.46852	-946.02073	806.24926	-423.27157	-1015.53924	718.43982	-422.51376	-746.88736	852.53604	-763.42673	-816.69681	750.26386	-764.24402	-779.87365	1146.04335	-404.62356	-799.87007	1036.37082	-411.28919	-859.59669	1021.38237	-385.93716	-890.89154	1163.72316	-386.01777	-907.68315	1048.02129	-398.10842	-755.60632	1148.67129	-791.03825	-684.80782	1029.48508	-777.94001	-850.06493	1093.92272	-745.87879	-774.42194	975.08928	-748.35147	-742.45850	1316.02356	-450.08350	-928.06317	1379.36729	-515.81231	-749.86592	1325.60786	-695.40923	-940.17981	1385.26711	-616.16052	-855.20806	1790.70389	-570.11640	-755.07925	1754.69484	-406.09019	-776.33750	1762.52963	-742.14876	-711.91558	1730.22354	-550.13085	-717.76591	1732.03899	-583.04877	-730.03547	1633.69399	-329.34390	-714.96711	1410.10338	-362.95846	-696.97142	1437.42678	-291.25722	-566.11795	1475.71554	-324.77548	-445.65373	1498.23118	-366.69605	-430.93326	1470.29855	-349.14983	-769.54681	1663.08064	-821.66989	-838.14644	1427.57145	-821.47951	-797.85323	1461.18205	-887.28217	-700.36141	1417.82726	-837.32956	-589.23121	1331.01392	-783.40935	-590.93350	1313.01785	-813.32697	-826.78949	1246.05349	-472.74819	-834.42748	1257.90895	-678.73635	-816.42853	1253.40084	-479.07710	-835.82735	1262.85004	-639.74748	
61	0.60000000	-876.04552	849.54815	-433.85139	-865.66806	767.68052	-448.45058	-1087.96625	501.08386	-461.27016	-1154.54060	528.14743	-500.23214	-1057.15255	380.35795	-441.16407	-999.58912	370.57501	-491.58755	-662.92688	899.51098	-760.82471	-665.60081	803.09101	-767.11392	-877.71711	577.21154	-730.43637	-943.29122	594.69284	-673.32649	-850.28912	457.36230	-771.95859	-794.25119	448.62957	-727.23011	-938.74384	678.51743	-428.47490	-927.82228	813.20014	-422.71678	-997.93077	725.71026	-422.16387	-734.93545	858.63932	-763.99217	-801.96237	754.68179	-765.75500	-767.84190	1155.59326	-404.83681	-785.52266	1045.56830	-410.44724	-844.85645	1029.39480	-385.20126	-879.09794	1171.21412	-386.24341	-893.43114	1055.12969	-397.58872	-745.56385	1157.31400	-791.90663	-674.56614	1037.91055	-777.76678	-840.01303	1102.65831	-746.49757	-764.29693	983.62969	-747.96575	-733.42375	1327.92314	-450.91999	-918.68715	1388.65281	-517.36543	-740.12440	1335.65624	-695.37141	-930.63257	1394.05144	-617.48463	-842.36974	1800.34233	-571.51813	-744.53863	1762.61723	-407.93597	-764.68812	1769.43721	-743.95548	-700.47717	1737.69220	-551.03998	-706.89681	1737.79201	-584.87229	-721.74998	1641.43650	-330.35159	-712.50638	1417.35895	-362.40327	-694.04781	1444.67075	-290.93209	-562.35583	1479.58444	-324.37870	-441.17104	1499.08138	-366.30880	-427.16887	1470.70178	-348.84772	-759.59316	1669.67700	-823.03155	-832.09208	1435.32629	-820.51201	-791.93476	1467.66576	-886.91735	-694.81229	1422.68053	-837.33221	-584.80547	1333.86261	-784.45998	-587.16827	1315.64235	-814.00037	-816.67492	1256.84021	-472.91693	-823.78090	1267.23574	-679.00452	-806.25877	1264.15762	-479.71175	-825.36247	1272.79150	-639.82334	
62	0.61000000	-856.24243	854.88985	-433.01974	-846.75610	772.24274	-447.46045	-1074.86521	510.69236	-461.49936	-1139.41587	537.63077	-503.62330	-1046.15223	389.84623	-438.22922	-987.25758	378.04095	-486.38744	-652.55212	907.32392	-760.50271	-652.20208	810.82813	-767.44583	-858.37098	578.27617	-732.49159	-924.73681	593.88434	-676.06262	-827.81658	459.18497	-774.24628	-771.97007	451.66469	-728.82765	-921.35350	684.30377	-427.77784	-908.13484	818.78025	-421.74744	-979.32051	731.78203	-421.22164	-723.29702	864.01915	-764.32921	-787.26936	758.20782	-766.93472	-756.10507	1164.18497	-405.15514	-771.06660	1053.74541	-409.70007	-829.99219	1036.21596	-384.55360	-867.80435	1177.16568	-387.07921	-879.17640	1060.37217	-397.12610	-736.32336	1164.79076	-792.24087	-665.07240	1045.48779	-777.46913	-830.54812	1110.29168	-746.30102	-754.71611	991.24854	-747.32780	-725.14780	1338.66021	-451.69360	-909.83443	1397.09258	-519.24602	-730.81495	1344.42348	-695.53693	-921.39964	1402.13590	-619.01304	-828.75289	1809.10412	-572.74024	-733.44993	1769.34616	-409.85030	-752.28762	1775.18689	-745.70699	-688.74752	1743.89536	-552.34317	-695.70823	1742.25447	-586.77482	-713.13237	1648.20739	-331.67628	-710.24087	1423.75550	-361.71497	-691.27776	1450.98075	-290.45504	-558.57525	1481.99196	-323.56632	-436.63631	1498.22466	-365.28835	-423.47611	1469.30287	-348.02501	-748.83153	1675.12492	-824.16404	-825.77425	1442.30568	-819.58211	-785.58555	1473.36402	-886.55917	-688.98977	1426.79468	-837.34305	-579.91626	1336.12247	-785.28665	-582.97109	1317.79095	-814.49992	-807.44720	1266.63905	-473.20597	-813.74268	1275.52546	-679.38939	-796.93961	1273.57009	-480.54451	-815.45886	1281.64381	-640.29730	
